Coordinates
version=1
nRows=16
nColumns=40
inDegrees=yes

Units are S.I. units (second, meters, Newtons, ...)
Angles are in degrees.

endheader
time	pelvis_tilt	pelvis_list	pelvis_rotation	pelvis_tx	pelvis_ty	pelvis_tz	hip_flexion_r	hip_adduction_r	hip_rotation_r	knee_angle_r	knee_angle_r_beta	ankle_angle_r	subtalar_angle_r	mtp_angle_r	hip_flexion_l	hip_adduction_l	hip_rotation_l	knee_angle_l	knee_angle_l_beta	ankle_angle_l	subtalar_angle_l	mtp_angle_l	lumbar_extension	lumbar_bending	lumbar_rotation	arm_flex_r	arm_add_r	arm_rot_r	elbow_flex_r	pro_sup_r	wrist_flex_r	wrist_dev_r	arm_flex_l	arm_add_l	arm_rot_l	elbow_flex_l	pro_sup_l	wrist_flex_l	wrist_dev_l
     30.30800000	     -2.98938996	     -4.06111473	      5.21243683	      1.03098849	      0.93357727	      0.48232794	      6.92425186	      2.36368566	    -14.28711591	     13.96281418	     13.96281418	     11.99978298	      0.38878755	     -3.44460116	     35.05493049	     -9.73344230	      1.49963927	     50.31497881	     50.31497881	      7.94332374	    -18.33097206	     11.81746950	    -10.97043382	      3.30038506	      2.77639208	     20.92913701	    -18.79262567	      1.82541449	     73.11010797	     44.87936961	      0.00000000	      0.00000000	      2.20925149	    -10.22823057	    -11.12418213	     31.24665691	     47.00236345	      0.00000000	      0.00000000
     30.32100000	     -3.18001683	     -3.95927216	      5.55743214	      1.02960070	      0.93350649	      0.48181704	      6.54156640	      2.30548920	    -14.52331365	     13.40578133	     13.40578133	     12.02658074	      0.45693932	     -3.62555463	     35.14413696	     -9.10732018	      1.58259420	     46.55942867	     46.55942867	      8.05083186	    -18.01016747	     11.98901398	    -10.96225912	      3.24986032	      2.82290634	     22.04172277	    -18.67091433	      1.93787144	     74.03197211	     44.85490582	      0.00000000	      0.00000000	      1.87566652	    -10.10739859	    -11.25941152	     30.71868930	     47.00994746	      0.00000000	      0.00000000
     30.33400000	     -3.44007992	     -3.91367426	      5.87035432	      1.02821838	      0.93307202	      0.48121403	      6.33147561	      2.26992559	    -14.72512557	     13.02735751	     13.02735751	     12.11121251	      0.48313564	     -3.78973945	     35.23968831	     -8.52921568	      1.75624635	     42.81029915	     42.81029915	      8.16823528	    -17.30170338	     12.12697688	    -10.85846675	      3.22564540	      2.98917555	     23.11145104	    -18.64097973	      1.97718677	     74.78963565	     44.83671327	      0.00000000	      0.00000000	      1.55865052	     -9.93094103	    -11.35042530	     30.36914504	     47.01347100	      0.00000000	      0.00000000
     30.34700000	     -3.52683506	     -3.92176662	      6.18556437	      1.02703514	      0.93271783	      0.48049406	      5.92427361	      2.28957832	    -15.05629213	     12.64743613	     12.64743613	     12.17793871	      0.70692208	     -4.16077244	     35.01121537	     -7.98740045	      2.12714887	     39.02058381	     39.02058381	      7.97520902	    -16.51600877	     11.78218905	    -10.96871054	      3.31397015	      2.94909062	     24.14047639	    -18.43685434	      2.22936435	     75.85178114	     44.80549157	      0.00000000	      0.00000000	      1.22933800	     -9.81888097	    -11.60193482	     29.83829874	     47.03584279	      0.00000000	      0.00000000
     30.36000000	     -3.74953622	     -3.94327351	      6.42957701	      1.02588586	      0.93197148	      0.47977072	      5.76364168	      2.29509219	    -15.24526546	     12.46814846	     12.46814846	     12.36425688	      0.73187037	     -4.39876532	     34.92164000	     -7.55417542	      2.37079286	     35.48375141	     35.48375141	      7.95033738	    -15.17015791	     11.77245545	    -10.84557325	      3.35833528	      3.16804715	     25.05246765	    -18.37921344	      2.31576619	     76.49987246	     44.78943214	      0.00000000	      0.00000000	      0.93326232	     -9.66926866	    -11.73484114	     29.58950749	     47.04562978	      0.00000000	      0.00000000
     30.37300000	     -3.81216914	     -4.01605506	      6.66562115	      1.02499941	      0.93129820	      0.47894991	      5.43784760	      2.35390050	    -15.50969815	     12.32016826	     12.32016826	     12.56697611	      0.90617547	     -4.74033615	     34.61042249	     -7.23413373	      2.61730406	     32.19836790	     32.19836790	      7.76565967	    -13.68409960	     11.43262475	    -10.91306203	      3.49790842	      3.21706793	     25.96173827	    -18.16109991	      2.55921477	     77.33240179	     44.76529593	      0.00000000	      0.00000000	      0.60589647	     -9.55877607	    -11.98540842	     29.27201777	     47.06922051	      0.00000000	      0.00000000
     30.38600000	     -3.95574138	     -4.09192085	      6.85946309	      1.02421600	      0.93041338	      0.47804018	      5.23276436	      2.39916044	    -15.66243609	     12.25175508	     12.25175508	     12.82252532	      0.96998775	     -4.97542113	     34.40733719	     -6.96525238	      2.77448941	     29.31585841	     29.31585841	      7.63581014	    -12.10182512	     11.40113896	    -10.82417686	      3.63240976	      3.39744647	     26.75324811	    -17.99097640	      2.71054558	     77.90222845	     44.74962532	      0.00000000	      0.00000000	      0.30752875	     -9.42749767	    -12.13856984	     29.08696689	     47.08186613	      0.00000000	      0.00000000
     30.39900000	     -4.00860304	     -4.24824817	      6.99592737	      1.02367210	      0.92957135	      0.47725671	      4.95505400	      2.54555586	    -15.83735283	     12.23805471	     12.23805471	     13.10392937	      1.07600683	     -5.20276104	     34.12840669	     -6.87737984	      2.81207367	     26.89253498	     26.89253498	      7.44389009	    -10.56703172	     11.33073651	    -10.81519990	      3.74534796	      3.51171171	     27.49951828	    -17.72998982	      2.91459944	     78.46356603	     44.73266880	      0.00000000	      0.00000000	     -0.00292210	     -9.32635179	    -12.30566132	     28.90983621	     47.09625572	      0.00000000	      0.00000000
     30.41200000	     -4.10966907	     -4.56707993	      7.13325598	      1.02325131	      0.92849398	      0.47633780	      4.78225625	      2.84433538	    -15.98350326	     12.29849637	     12.29849637	     13.39985100	      1.10453265	     -5.38102150	     34.04442229	     -6.93550166	      2.91864132	     25.10278015	     25.10278015	      7.28195860	     -9.44766722	     11.44471056	    -10.67537348	      4.13081183	      3.76683799	     28.15897591	    -17.55549968	      3.00155478	     78.82437069	     44.72300154	      0.00000000	      0.00000000	     -0.24460041	     -9.19095126	    -12.37350282	     28.81193673	     47.09974775	      0.00000000	      0.00000000
     30.42500000	     -4.01293424	     -4.57643110	      7.18030248	      1.02338569	      0.92787050	      0.47535316	      4.20861165	      2.84193391	    -16.16785838	     12.16410040	     12.16410040	     13.77687560	      1.53829398	     -5.53975101	     33.53194443	     -6.93246545	      2.18127562	     23.57190157	     23.57190157	      6.85365891	     -7.89350208	     10.46299550	    -10.80339366	      4.12407988	      3.54964255	     28.86078610	    -16.96926704	      3.68940281	     79.42631367	     44.69769685	      0.00000000	      0.00000000	     -0.72834714	     -9.16994045	    -12.83602072	     28.65200890	     47.14583275	      0.00000000	      0.00000000
     30.43800000	     -4.08459577	     -4.74995095	      7.20041231	      1.02352015	      0.92694640	      0.47432446	      3.93889236	      2.99199060	    -16.15263960	     12.20017017	     12.20017017	     14.07484528	      1.57832080	     -5.63937603	     33.29208694	     -6.97956401	      1.80797415	     22.58991562	     22.58991562	      6.47514740	     -7.34940345	     10.48667164	    -10.62313554	      4.27664018	      3.77504700	     29.23875360	    -16.68932108	      3.85806859	     79.62248345	     44.69072239	      0.00000000	      0.00000000	     -0.95561545	     -9.07085298	    -12.93710152	     28.59331597	     47.15331217	      0.00000000	      0.00000000
     30.45100000	     -3.98376308	     -4.87978677	      7.15331651	      1.02419489	      0.92615665	      0.47325933	      3.38568923	      3.11850238	    -16.20716770	     12.15887645	     12.15887645	     14.61100178	      1.92190801	     -5.31799093	     32.72970718	     -7.12383865	      1.02455377	     21.82207638	     21.82207638	      5.14211960	     -7.05677719	      7.50207664	    -10.59375253	      4.33096154	      3.43861608	     30.00265346	    -16.13325603	      5.11148633	     79.30436810	     44.71254176	      0.00000000	      0.00000000	     -1.61458983	     -8.96003983	    -14.31502059	     28.89420154	     47.29229421	      0.00000000	      0.00000000
     30.46400000	     -4.01476513	     -5.02685178	      7.06874844	      1.02496022	      0.92517638	      0.47209153	      3.00221039	      3.24555003	    -16.08645165	     12.15308091	     12.15308091	     14.96710874	      1.98199229	     -5.42107164	     32.44693020	     -7.22777028	      0.46982867	     21.75261849	     21.75261849	      4.89572276	     -7.21840308	      7.58511333	    -10.38662335	      4.40847200	      3.67279989	     30.06872276	    -15.75976240	      5.22041828	     79.44965605	     44.70651666	      0.00000000	      0.00000000	     -1.83061524	     -8.92663362	    -14.35666640	     28.80158395	     47.29185028	      0.00000000	      0.00000000
     30.47700000	     -4.05953644	     -5.14983884	      7.02428320	      1.02592076	      0.92414878	      0.47073737	      2.60650663	      3.33684407	    -16.00153319	     12.13471642	     12.13471642	     15.35429309	      2.00935589	     -5.52290349	     32.12007836	     -7.30221253	     -0.10500430	     21.88138227	     21.88138227	      4.64573681	     -7.47986149	      7.64426838	    -10.15622529	      4.47054016	      3.84815219	     30.02794985	    -15.46169657	      5.33012273	     79.53365530	     44.70093248	      0.00000000	      0.00000000	     -2.01133813	     -8.93455904	    -14.38299734	     28.73161498	     47.29138852	      0.00000000	      0.00000000
     30.49000000	     -3.98305859	     -5.19191952	      6.80448136	      1.02739799	      0.92325622	      0.46946412	      2.00517400	      3.36011103	    -15.74324293	     12.05691318	     12.05691318	     15.71207423	      2.17187602	     -5.54854986	     31.59355519	     -7.41207472	     -0.76209344	     22.27456722	     22.27456722	      4.50866405	     -7.93649421	      7.48022299	    -10.00264423	      4.37986299	      3.97830728	     29.86102670	    -14.88270789	      5.56609258	     79.68324255	     44.68973504	      0.00000000	      0.00000000	     -2.28296733	     -8.93745163	    -14.42724088	     28.62490593	     47.29017313	      0.00000000	      0.00000000
     30.50300000	     -3.83268230	     -5.32759639	      6.68118255	      1.02908341	      0.92235344	      0.46795271	      1.23565900	      3.50400059	    -15.60766429	     11.85426335	     11.85426335	     16.46116817	      2.52391030	     -4.43937708	     30.86911434	     -7.55135322	     -1.16912956	     22.44882443	     22.44882443	      3.22913715	     -8.79414759	      4.39852759	     -9.92885706	      4.43432226	      3.53748153	     30.04994765	    -14.25104239	      6.58444885	     79.51869623	     44.70757801	      0.00000000	      0.00000000	     -2.96801406	     -8.97103493	    -15.17410779	     29.10349295	     47.32474758	      0.00000000	      0.00000000
